<svg version="1.1" x="0px" y="0px" width="366" height="339" xmlns="http://www.w3.org/2000/svg" xmlns:xlink="http://www.w3.org/1999/xlink" xmlns:a="http://ns.adobe.com/AdobeSVGViewerExtensions/3.0/" xml:space="preserve"><g transform="translate(55.438408257504 20.579491608457) scale(2.5242905452527 2.5242905452527) rotate(0 54.098999023438 58.994995117188)"><path d="M3.722,32.694c6.3-13.326,17.412-23.399,31.289-28.366c6.013-2.152,12.269-3.244,18.595-3.244
       c19.572,0,37.468,10.433,47.31,26.801C92.188,16.867,79.271,9.169,64.24,7.416c-2.133-0.248-4.295-0.374-6.426-0.374
   c-3.336,0-6.606,0.308-9.788,0.883c-5.35,0.276-10.63,1.329-15.733,3.156C20.089,15.449,10.39,23.718,4.06,33.975h1.279
 c6.208-9.792,15.582-17.672,27.319-21.873c2.35-0.841,4.738-1.508,7.153-2.016c-12.264,4.269-22.609,12.783-29.192,23.889h0.632
        c7.246-12.061,18.994-20.991,32.798-24.609C46.3,9.077,48.567,8.93,50.846,8.93c18.673,0,35.779,9.711,45.544,25.045h1.277
     C88.016,18.395,70.992,8.358,52.268,7.873c1.826-0.187,3.676-0.29,5.547-0.29c2.111,0,4.252,0.125,6.361,0.371
  c16.403,1.913,30.255,10.985,38.82,23.72c0.376,0.754,0.721,1.526,1.063,2.301h1.186C96.405,13.517,76.097,0,53.605,0
  c-6.451,0-12.83,1.112-18.959,3.306C20.496,8.371,9.165,18.644,2.74,32.23c-0.273,0.578-0.534,1.16-0.786,1.744h1.189
   C3.332,33.547,3.521,33.119,3.722,32.694z M107.604,84.014c-7.366,16.633-22.738,28.707-40.99,31.648
  c0.935-0.281,1.865-0.577,2.789-0.908c13.096-4.688,23.313-13.863,29.569-25.171c1.296-1.772,2.482-3.637,3.576-5.569h-2.064
    c-0.724,1.7-1.533,3.364-2.426,4.983c-6.447,8.798-15.358,15.481-25.854,19.239c-6.011,2.151-12.267,3.241-18.592,3.241
        c-14.286,0-27.674-5.564-37.694-14.932c-0.228-0.276-0.464-0.544-0.687-0.825c-2.881-3.642-5.247-7.573-7.087-11.707H7.565
      c1.459,3.314,3.244,6.505,5.366,9.521c-2.652-2.89-4.998-6.082-7.004-9.521h-1.27c3.523,6.205,8.165,11.616,13.606,16.011
      c8.81,9.207,20.439,15.017,33.256,16.51c0.932,0.108,1.871,0.185,2.81,0.246c-1.157,0.075-2.317,0.125-3.48,0.125
       c-21.686,0-41.259-13.098-49.67-32.892H0c8.48,20.43,28.575,33.977,50.85,33.977c3.976,0,7.923-0.434,11.799-1.29
      c20.275-1.731,37.614-14.553,45.549-32.687H107.604z M58.435,116.355c-0.163,0.002-0.324,0.012-0.487,0.012
     c-2.111,0-4.254-0.125-6.365-0.372c-11.239-1.31-21.547-5.981-29.82-13.362c9.182,6.313,20.224,9.931,31.85,9.931
      c6.449,0,12.829-1.113,18.959-3.307c7.916-2.834,14.948-7.3,20.733-13.062c-6.068,7.77-14.318,13.977-24.267,17.538
    C65.574,114.973,62.027,115.842,58.435,116.355z" fill="#c8897a"></path></g>
<g transform="translate(20 178.140625)  scale(1 1)"><text dominant-baseline="auto" alignment-baseline="auto" font-family="Shintia Script" font-size="80px" fill="#985250" letter-spacing="0" xml:space="preserve">Eb's Sweets</text></g>
<g transform="translate(51.191666666667 218.1921386996)  scale(0.95780806360023 0.95780806360023)"><text dominant-baseline="auto" alignment-baseline="auto" font-family="Fontastique" font-size="34px" fill="#b89696" letter-spacing="0" xml:space="preserve">BAKING HAPPINESS</text></g>
</svg>